<svg width="103" height="45" viewBox="0 0 103 45" fill="none" xmlns="http://www.w3.org/2000/svg">
<path d="M17.4209 28.7988C17.958 28.6328 18.3828 28.4912 18.6953 28.374C19.0176 28.2471 19.2617 28.0859 19.4277 27.8906C19.5938 27.6855 19.7012 27.417 19.75 27.085C19.7988 26.7529 19.8232 26.2988 19.8232 25.7227V20.1416C19.8232 19.624 19.75 19.209 19.6035 18.8965C19.4668 18.5742 19.2812 18.3252 19.0469 18.1494C18.8125 17.9639 18.5439 17.8223 18.2412 17.7246C17.9482 17.627 17.6455 17.5391 17.333 17.4609V16.4062C18.0068 16.2793 18.5537 16.1572 18.9736 16.04C19.3936 15.9229 19.7744 15.791 20.1162 15.6445C20.4678 15.498 20.8242 15.332 21.1855 15.1465C21.5469 14.9512 22.001 14.7168 22.5479 14.4434L23.1338 14.751L22.9434 17.0947C23.2754 16.9092 23.6172 16.7139 23.9688 16.5088C24.2715 16.333 24.6084 16.1377 24.9795 15.9229C25.3604 15.708 25.7412 15.4932 26.1221 15.2783C26.2197 15.249 26.3516 15.2051 26.5176 15.1465C26.6934 15.0879 26.8887 15.0293 27.1035 14.9707C27.3281 14.9121 27.5723 14.8584 27.8359 14.8096C28.0996 14.7607 28.3682 14.7363 28.6416 14.7363C29.2764 14.7363 29.8135 14.7949 30.2529 14.9121C30.7021 15.0195 31.0732 15.1807 31.3662 15.3955C31.6689 15.6104 31.9033 15.8691 32.0693 16.1719C32.2451 16.4648 32.377 16.8018 32.4648 17.1826C32.5234 17.1533 32.6699 17.0752 32.9043 16.9482C33.1387 16.8213 33.4219 16.6699 33.7539 16.4941C34.0859 16.3086 34.4424 16.1084 34.8232 15.8936C35.2041 15.6787 35.5703 15.4736 35.9219 15.2783C36.0195 15.249 36.1562 15.2051 36.332 15.1465C36.5078 15.0879 36.708 15.0293 36.9326 14.9707C37.1572 14.9121 37.3965 14.8584 37.6504 14.8096C37.9141 14.7607 38.1875 14.7363 38.4707 14.7363C39.1836 14.7363 39.7793 14.8096 40.2578 14.9561C40.7363 15.1025 41.1221 15.3076 41.415 15.5713C41.7178 15.8252 41.9424 16.1328 42.0889 16.4941C42.2451 16.8555 42.3525 17.2461 42.4111 17.666C42.4697 18.0859 42.499 18.5352 42.499 19.0137C42.499 19.4824 42.5039 19.9609 42.5137 20.4492L42.5283 27.9932C42.9189 28.1299 43.2852 28.252 43.627 28.3594C43.9199 28.457 44.208 28.5498 44.4912 28.6377C44.7842 28.7158 45.0088 28.7695 45.165 28.7988V30H37.1816V28.7988C37.5527 28.6719 37.8652 28.5693 38.1191 28.4912C38.3828 28.4131 38.5977 28.335 38.7637 28.2568C38.9297 28.1689 39.0566 28.0713 39.1445 27.9639C39.2422 27.8564 39.3105 27.71 39.3496 27.5244C39.3984 27.3291 39.4229 27.0898 39.4229 26.8066C39.4326 26.5137 39.4375 26.1426 39.4375 25.6934V18.8232C39.4375 18.6279 39.4131 18.4375 39.3643 18.252C39.3154 18.0664 39.2471 17.9297 39.1592 17.8418C39.0518 17.7344 38.9346 17.6416 38.8076 17.5635C38.6807 17.4854 38.5244 17.4219 38.3389 17.373C38.1533 17.3242 37.9287 17.29 37.665 17.2705C37.4111 17.2412 37.1035 17.2266 36.7422 17.2266C36.3516 17.2266 35.9609 17.2656 35.5703 17.3438C35.1797 17.4219 34.8037 17.5244 34.4424 17.6514C34.0908 17.7686 33.7588 17.9004 33.4463 18.0469C33.1436 18.1836 32.8799 18.3154 32.6553 18.4424C32.6748 18.7842 32.6846 19.1406 32.6846 19.5117C32.6943 19.873 32.6992 20.2344 32.6992 20.5957L32.7139 27.9932C33.1045 28.1299 33.4707 28.252 33.8125 28.3594C34.1055 28.457 34.3936 28.5498 34.6768 28.6377C34.9697 28.7158 35.1943 28.7695 35.3506 28.7988V30H27.3525V28.7988C27.7334 28.6719 28.0508 28.5693 28.3047 28.4912C28.5684 28.4131 28.7832 28.335 28.9492 28.2568C29.1152 28.1689 29.2422 28.0713 29.3301 27.9639C29.4277 27.8564 29.4961 27.71 29.5352 27.5244C29.584 27.3291 29.6084 27.0898 29.6084 26.8066C29.6182 26.5137 29.623 26.1426 29.623 25.6934V18.8232C29.623 18.6279 29.5938 18.4375 29.5352 18.252C29.4863 18.0664 29.4229 17.9297 29.3447 17.8418C29.2373 17.7344 29.1201 17.6416 28.9932 17.5635C28.876 17.4854 28.7295 17.4219 28.5537 17.373C28.3779 17.3242 28.1631 17.29 27.9092 17.2705C27.665 17.2412 27.3623 17.2266 27.001 17.2266C26.5908 17.2266 26.1855 17.2656 25.7852 17.3438C25.3945 17.4219 25.0186 17.5244 24.6572 17.6514C24.3057 17.7686 23.9785 17.9004 23.6758 18.0469C23.373 18.1934 23.1143 18.335 22.8994 18.4717V27.9932L25.4336 28.7988V30H17.4209V28.7988ZM46.9229 26.2793C46.9229 25.8691 46.957 25.4932 47.0254 25.1514C47.1035 24.8096 47.25 24.4922 47.4648 24.1992C47.6895 23.8965 48.002 23.6133 48.4023 23.3496C48.8125 23.0762 49.3447 22.8076 49.999 22.5439C50.6631 22.2803 51.4688 22.0117 52.416 21.7383C53.3633 21.4648 54.4961 21.1719 55.8145 20.8594V18.6182C55.8145 18.3447 55.7949 18.0859 55.7559 17.8418C55.7266 17.5879 55.624 17.3682 55.4482 17.1826C55.2725 16.9873 54.999 16.8311 54.6279 16.7139C54.2666 16.5869 53.7588 16.5186 53.1045 16.5088C52.6357 16.5088 52.2451 16.5771 51.9326 16.7139C51.6201 16.8408 51.3516 17.041 51.127 17.3145C50.9121 17.5879 50.7217 17.9297 50.5557 18.3398C50.3994 18.7402 50.2383 19.209 50.0723 19.7461H47.7285L48.0361 16.7285C48.3584 16.5918 48.71 16.4453 49.0908 16.2891C49.4717 16.1328 49.8574 15.9814 50.248 15.835C50.6484 15.6885 51.0439 15.5518 51.4346 15.4248C51.8252 15.2881 52.1865 15.1709 52.5186 15.0732C52.8604 14.9658 53.1631 14.8828 53.4268 14.8242C53.6904 14.7656 53.8955 14.7363 54.042 14.7363C54.9209 14.7363 55.6631 14.8047 56.2686 14.9414C56.8838 15.0781 57.3867 15.3125 57.7773 15.6445C58.168 15.9668 58.4512 16.4014 58.627 16.9482C58.8027 17.4854 58.8906 18.1543 58.8906 18.9551V27.3779C58.8906 27.6416 59.0078 27.832 59.2422 27.9492C59.4766 28.0664 59.7305 28.1445 60.0039 28.1836C60.2871 28.2227 60.5459 28.2422 60.7803 28.2422C61.0146 28.2422 61.1318 28.252 61.1318 28.2715V29.4873C60.9365 29.5654 60.707 29.6533 60.4434 29.751C60.1895 29.8389 59.916 29.9219 59.623 30C59.3301 30.0781 59.0322 30.1465 58.7295 30.2051C58.4365 30.2637 58.1533 30.293 57.8799 30.293C57.1865 30.293 56.6934 30.1123 56.4004 29.751C56.1074 29.3896 55.9609 28.8379 55.9609 28.0957C55.4922 28.4863 55.0771 28.8232 54.7158 29.1064C54.3643 29.3799 54.0176 29.6045 53.6758 29.7803C53.3438 29.9561 52.9873 30.083 52.6064 30.1611C52.2256 30.249 51.7812 30.293 51.2734 30.293C50.7656 30.293 50.2529 30.2148 49.7354 30.0586C49.2178 29.9023 48.749 29.6631 48.3291 29.3408C47.9189 29.0088 47.582 28.5889 47.3184 28.0811C47.0547 27.5732 46.9229 26.9727 46.9229 26.2793ZM50.1455 25.9131C50.1455 26.3037 50.2139 26.6406 50.3506 26.9238C50.4971 27.1973 50.6924 27.4268 50.9365 27.6123C51.1807 27.7881 51.4688 27.9199 51.8008 28.0078C52.1426 28.0859 52.5039 28.125 52.8848 28.125C53.4121 28.125 53.9297 27.9883 54.4375 27.7148C54.9453 27.4316 55.4043 27.0947 55.8145 26.7041V22.3535C55.4629 22.4805 55.0771 22.5977 54.6572 22.7051C54.2373 22.8027 53.8174 22.9102 53.3975 23.0273C52.9775 23.1348 52.5723 23.2617 52.1816 23.4082C51.791 23.5547 51.4443 23.7402 51.1416 23.9648C50.8389 24.1797 50.5947 24.4482 50.4092 24.7705C50.2334 25.083 50.1455 25.4639 50.1455 25.9131ZM62.9043 28.7988C63.4414 28.6328 63.8662 28.4912 64.1787 28.374C64.501 28.2471 64.7451 28.0859 64.9111 27.8906C65.0869 27.6855 65.1992 27.417 65.248 27.085C65.2969 26.7529 65.3213 26.2988 65.3213 25.7227V20.0244C65.3213 19.5068 65.248 19.0918 65.1016 18.7793C64.9551 18.457 64.7646 18.208 64.5303 18.0322C64.2959 17.8467 64.0273 17.7051 63.7246 17.6074C63.4316 17.5098 63.1338 17.4219 62.8311 17.3438V16.2891C63.4951 16.1621 64.0371 16.0449 64.457 15.9375C64.8867 15.8301 65.2725 15.7129 65.6143 15.5859C65.9658 15.4492 66.3223 15.293 66.6836 15.1172C67.0449 14.9414 67.499 14.7168 68.0459 14.4434L68.6318 14.751L68.4414 17.2705C68.7344 17.0264 69.0371 16.7773 69.3496 16.5234C69.6133 16.3086 69.9062 16.0791 70.2285 15.835C70.5605 15.5908 70.8926 15.3662 71.2246 15.1611C71.6348 14.9561 72.0693 14.8242 72.5283 14.7656C72.9873 14.6973 73.4121 14.668 73.8027 14.6777C74.2617 14.6875 74.7061 14.7363 75.1357 14.8242L74.7549 20.0391H73.1143L72.8066 17.9297C72.7871 17.9004 72.7627 17.8516 72.7334 17.7832C72.7041 17.7148 72.6602 17.6514 72.6016 17.5928C72.5527 17.5244 72.4893 17.4658 72.4111 17.417C72.3428 17.3584 72.2598 17.3291 72.1621 17.3291C71.8105 17.3389 71.4492 17.3877 71.0781 17.4756C70.7168 17.5635 70.3701 17.6758 70.0381 17.8125C69.7061 17.9395 69.3984 18.0811 69.1152 18.2373C68.832 18.3838 68.5928 18.5205 68.3975 18.6475V27.9932L71.8545 28.7988V30H62.9043V28.7988ZM76.9375 28.7988C77.4551 28.6621 77.875 28.5352 78.1973 28.418C78.5293 28.3008 78.7881 28.1396 78.9736 27.9346C79.1689 27.7295 79.3008 27.4561 79.3691 27.1143C79.4473 26.7725 79.4863 26.3086 79.4863 25.7227V19.6729C79.4863 19.1553 79.418 18.7354 79.2812 18.4131C79.1445 18.0811 78.9639 17.8174 78.7393 17.6221C78.5146 17.417 78.2559 17.2607 77.9629 17.1533C77.6699 17.0459 77.3672 16.9531 77.0547 16.875V15.8203C77.7188 15.6934 78.3047 15.5859 78.8125 15.498C79.3203 15.4004 79.7793 15.3076 80.1895 15.2197C80.5996 15.1221 80.9756 15.0146 81.3174 14.8975C81.6689 14.7705 82.0205 14.6191 82.3721 14.4434L82.9141 14.7217C82.8457 15.1221 82.7871 15.5127 82.7383 15.8936C82.6992 16.2744 82.665 16.665 82.6357 17.0654C82.6064 17.4561 82.5869 17.8662 82.5771 18.2959C82.5674 18.7158 82.5625 19.165 82.5625 19.6436V27.9932L85.2285 28.7988V30H76.9375V28.7988ZM80.8633 11.4404C80.5508 11.4404 80.2676 11.3867 80.0137 11.2793C79.7598 11.1719 79.5449 11.0303 79.3691 10.8545C79.1934 10.6689 79.0566 10.459 78.959 10.2246C78.8613 9.98047 78.8125 9.72168 78.8125 9.44824C78.8125 9.2041 78.8613 8.95996 78.959 8.71582C79.0566 8.46191 79.208 8.2373 79.4131 8.04199C79.6182 7.84668 79.8721 7.68555 80.1748 7.55859C80.4873 7.43164 80.8486 7.36816 81.2588 7.36816C81.5322 7.36816 81.791 7.41699 82.0352 7.51465C82.2891 7.60254 82.5039 7.72949 82.6797 7.89551C82.8652 8.06152 83.0117 8.2666 83.1191 8.51074C83.2266 8.74512 83.2803 9.00879 83.2803 9.30176C83.2803 9.62402 83.2119 9.91699 83.0752 10.1807C82.9482 10.4346 82.7725 10.6592 82.5479 10.8545C82.3232 11.04 82.0645 11.1865 81.7715 11.2939C81.4785 11.3916 81.1758 11.4404 80.8633 11.4404Z" fill="#9531F4"/>
<line x1="8.33363" y1="15.5303" x2="0.53033" y2="23.3336" stroke="#540A9B" stroke-width="1.5"/>
<line x1="0.53033" y1="22.273" x2="8.72703" y2="30.4697" stroke="#540A9B" stroke-width="1.5"/>
<line x1="93.2761" y1="31.0826" x2="101.083" y2="23.2761" stroke="#540A9B" stroke-width="1.5"/>
<line x1="101.083" y1="24.3368" x2="93.2761" y2="16.5303" stroke="#540A9B" stroke-width="1.5"/>
</svg>
